<svg id="Capa_1" enable-background="new 0 0 512 512" height="512" viewBox="0 0 512 512" width="512"
     fill="#ffffff"
     xmlns="http://www.w3.org/2000/svg">
    <g>
        <path d="m477.789 476.275c3.495-4.441 4.196-10.47 1.815-15.595l-210-452c-2.46-5.294-7.767-8.68-13.604-8.68s-11.144 3.386-13.604 8.68l-210 452c-2.381 5.125-1.68 11.154 1.815 15.595 3.495 4.442 9.187 6.544 14.73 5.434l142.128-28.426 54.324 54.324c2.929 2.929 6.768 4.393 10.607 4.393s7.678-1.464 10.606-4.394l54.324-54.324 142.128 28.426c5.515 1.105 11.22-.971 14.731-5.433zm-221.789-.488-42.85-42.85 42.85-129.266 42.85 129.265zm71.494-51.785-57.256-172.722c-2.034-6.137-7.772-10.28-14.238-10.28s-12.204 4.143-14.238 10.28l-57.256 172.722-112.437 22.487 183.931-395.889 183.931 395.889z"/>
    </g>
</svg>
